<mxfile host="app.diagrams.net" agent="Mozilla/5.0 (Windows NT 10.0; Win64; x64) AppleWebKit/537.36 (KHTML, like Gecko) Chrome/140.0.0.0 Safari/537.36" version="28.2.5">
  <diagram name="Page-1" id="PrLJAxqtnIi-CFv0RMUY">
    <mxGraphModel grid="1" page="1" gridSize="10" guides="1" tooltips="1" connect="1" arrows="1" fold="1" pageScale="1" pageWidth="827" pageHeight="2000" math="0" shadow="0">
      <root>
        <mxCell id="0" />
        <mxCell id="1" parent="0" />
        <mxCell id="CqsUoGGvN82b0qZi6mD4-18" value="Error" style="rounded=1;whiteSpace=wrap;html=1;" vertex="1" parent="1">
          <mxGeometry x="210" y="1080" width="570" height="40" as="geometry" />
        </mxCell>
        <mxCell id="CqsUoGGvN82b0qZi6mD4-1" value="Start" style="ellipse;whiteSpace=wrap;html=1;" vertex="1" parent="1">
          <mxGeometry x="320" y="40" width="120" height="80" as="geometry" />
        </mxCell>
        <mxCell id="CqsUoGGvN82b0qZi6mD4-12" style="edgeStyle=orthogonalEdgeStyle;rounded=0;orthogonalLoop=1;jettySize=auto;html=1;exitX=0.5;exitY=1;exitDx=0;exitDy=0;entryX=0.5;entryY=0;entryDx=0;entryDy=0;" edge="1" parent="1" source="CqsUoGGvN82b0qZi6mD4-2" target="CqsUoGGvN82b0qZi6mD4-3">
          <mxGeometry relative="1" as="geometry" />
        </mxCell>
        <mxCell id="CqsUoGGvN82b0qZi6mD4-2" value="Check inputs" style="rounded=1;whiteSpace=wrap;html=1;" vertex="1" parent="1">
          <mxGeometry x="320" y="170" width="120" height="60" as="geometry" />
        </mxCell>
        <mxCell id="CqsUoGGvN82b0qZi6mD4-28" style="edgeStyle=orthogonalEdgeStyle;rounded=0;orthogonalLoop=1;jettySize=auto;html=1;exitX=0.5;exitY=1;exitDx=0;exitDy=0;entryX=0.5;entryY=0;entryDx=0;entryDy=0;" edge="1" parent="1" source="CqsUoGGvN82b0qZi6mD4-3" target="CqsUoGGvN82b0qZi6mD4-8">
          <mxGeometry relative="1" as="geometry">
            <Array as="points">
              <mxPoint x="380" y="360" />
              <mxPoint x="310" y="360" />
            </Array>
          </mxGeometry>
        </mxCell>
        <mxCell id="CqsUoGGvN82b0qZi6mD4-29" style="edgeStyle=orthogonalEdgeStyle;rounded=0;orthogonalLoop=1;jettySize=auto;html=1;exitX=0.5;exitY=1;exitDx=0;exitDy=0;entryX=0.5;entryY=0;entryDx=0;entryDy=0;" edge="1" parent="1" source="CqsUoGGvN82b0qZi6mD4-3" target="CqsUoGGvN82b0qZi6mD4-9">
          <mxGeometry relative="1" as="geometry">
            <Array as="points">
              <mxPoint x="380" y="360" />
              <mxPoint x="500" y="360" />
            </Array>
          </mxGeometry>
        </mxCell>
        <mxCell id="CqsUoGGvN82b0qZi6mD4-30" style="edgeStyle=orthogonalEdgeStyle;rounded=0;orthogonalLoop=1;jettySize=auto;html=1;exitX=0.5;exitY=1;exitDx=0;exitDy=0;entryX=0.5;entryY=0;entryDx=0;entryDy=0;" edge="1" parent="1" source="CqsUoGGvN82b0qZi6mD4-3" target="CqsUoGGvN82b0qZi6mD4-10">
          <mxGeometry relative="1" as="geometry">
            <Array as="points">
              <mxPoint x="380" y="360" />
              <mxPoint x="690" y="360" />
            </Array>
          </mxGeometry>
        </mxCell>
        <mxCell id="CqsUoGGvN82b0qZi6mD4-3" value="Choosing resource type path" style="rounded=1;whiteSpace=wrap;html=1;" vertex="1" parent="1">
          <mxGeometry x="320" y="270" width="120" height="60" as="geometry" />
        </mxCell>
        <mxCell id="CqsUoGGvN82b0qZi6mD4-4" value="" style="endArrow=classic;html=1;rounded=0;exitX=0.5;exitY=1;exitDx=0;exitDy=0;entryX=0.5;entryY=0;entryDx=0;entryDy=0;entryPerimeter=0;" edge="1" parent="1" source="CqsUoGGvN82b0qZi6mD4-1" target="CqsUoGGvN82b0qZi6mD4-2">
          <mxGeometry width="50" height="50" relative="1" as="geometry">
            <mxPoint x="390" y="410" as="sourcePoint" />
            <mxPoint x="440" y="360" as="targetPoint" />
          </mxGeometry>
        </mxCell>
        <mxCell id="CqsUoGGvN82b0qZi6mD4-5" value="Required Parameters:&lt;div&gt;&lt;ul&gt;&lt;li&gt;Resource type {S3, DynamoDB, Aurora, RDS}&lt;/li&gt;&lt;li&gt;Resource specific paramters&lt;/li&gt;&lt;/ul&gt;&lt;/div&gt;&lt;div style=&quot;&quot;&gt;&lt;br&gt;&lt;/div&gt;" style="rounded=0;whiteSpace=wrap;html=1;dashed=1;align=left;" vertex="1" parent="1">
          <mxGeometry x="470" y="90" width="180" height="80" as="geometry" />
        </mxCell>
        <mxCell id="CqsUoGGvN82b0qZi6mD4-34" style="edgeStyle=orthogonalEdgeStyle;rounded=0;orthogonalLoop=1;jettySize=auto;html=1;exitX=0.5;exitY=1;exitDx=0;exitDy=0;entryX=0.5;entryY=0;entryDx=0;entryDy=0;" edge="1" parent="1" source="CqsUoGGvN82b0qZi6mD4-7" target="CqsUoGGvN82b0qZi6mD4-13">
          <mxGeometry relative="1" as="geometry" />
        </mxCell>
        <mxCell id="CqsUoGGvN82b0qZi6mD4-7" value="S3" style="rounded=1;whiteSpace=wrap;html=1;" vertex="1" parent="1">
          <mxGeometry x="70" y="380" width="120" height="60" as="geometry" />
        </mxCell>
        <mxCell id="CqsUoGGvN82b0qZi6mD4-35" style="edgeStyle=orthogonalEdgeStyle;rounded=0;orthogonalLoop=1;jettySize=auto;html=1;exitX=0.5;exitY=1;exitDx=0;exitDy=0;entryX=0.5;entryY=0;entryDx=0;entryDy=0;" edge="1" parent="1" source="CqsUoGGvN82b0qZi6mD4-8" target="CqsUoGGvN82b0qZi6mD4-22">
          <mxGeometry relative="1" as="geometry" />
        </mxCell>
        <mxCell id="CqsUoGGvN82b0qZi6mD4-8" value="DynamoDB" style="rounded=1;whiteSpace=wrap;html=1;" vertex="1" parent="1">
          <mxGeometry x="250" y="380" width="120" height="60" as="geometry" />
        </mxCell>
        <mxCell id="CqsUoGGvN82b0qZi6mD4-36" style="edgeStyle=orthogonalEdgeStyle;rounded=0;orthogonalLoop=1;jettySize=auto;html=1;exitX=0.5;exitY=1;exitDx=0;exitDy=0;entryX=0.5;entryY=0;entryDx=0;entryDy=0;" edge="1" parent="1" source="CqsUoGGvN82b0qZi6mD4-9" target="CqsUoGGvN82b0qZi6mD4-24">
          <mxGeometry relative="1" as="geometry" />
        </mxCell>
        <mxCell id="CqsUoGGvN82b0qZi6mD4-9" value="RDS" style="rounded=1;whiteSpace=wrap;html=1;" vertex="1" parent="1">
          <mxGeometry x="440" y="380" width="120" height="60" as="geometry" />
        </mxCell>
        <mxCell id="LB0DilCTdx80xnPKIEao-46" style="edgeStyle=orthogonalEdgeStyle;rounded=0;orthogonalLoop=1;jettySize=auto;html=1;exitX=0.5;exitY=1;exitDx=0;exitDy=0;entryX=0.5;entryY=0;entryDx=0;entryDy=0;" edge="1" parent="1" source="CqsUoGGvN82b0qZi6mD4-10" target="CqsUoGGvN82b0qZi6mD4-26">
          <mxGeometry relative="1" as="geometry" />
        </mxCell>
        <mxCell id="CqsUoGGvN82b0qZi6mD4-10" value="Aurora" style="rounded=1;whiteSpace=wrap;html=1;" vertex="1" parent="1">
          <mxGeometry x="630" y="380" width="120" height="60" as="geometry" />
        </mxCell>
        <mxCell id="CqsUoGGvN82b0qZi6mD4-11" style="edgeStyle=orthogonalEdgeStyle;rounded=0;orthogonalLoop=1;jettySize=auto;html=1;exitX=0.5;exitY=1;exitDx=0;exitDy=0;entryX=0.575;entryY=-0.033;entryDx=0;entryDy=0;entryPerimeter=0;" edge="1" parent="1" source="CqsUoGGvN82b0qZi6mD4-3" target="CqsUoGGvN82b0qZi6mD4-7">
          <mxGeometry relative="1" as="geometry">
            <Array as="points">
              <mxPoint x="380" y="360" />
              <mxPoint x="139" y="360" />
            </Array>
          </mxGeometry>
        </mxCell>
        <mxCell id="LB0DilCTdx80xnPKIEao-1" style="edgeStyle=orthogonalEdgeStyle;rounded=0;orthogonalLoop=1;jettySize=auto;html=1;exitX=0.5;exitY=1;exitDx=0;exitDy=0;entryX=0.5;entryY=0;entryDx=0;entryDy=0;" edge="1" parent="1" source="CqsUoGGvN82b0qZi6mD4-13" target="CqsUoGGvN82b0qZi6mD4-19">
          <mxGeometry relative="1" as="geometry" />
        </mxCell>
        <mxCell id="CqsUoGGvN82b0qZi6mD4-13" value="Copy the restoration point from the destination vault to the source vault account&amp;nbsp;" style="rounded=1;whiteSpace=wrap;html=1;" vertex="1" parent="1">
          <mxGeometry x="70" y="500" width="120" height="85" as="geometry" />
        </mxCell>
        <mxCell id="LB0DilCTdx80xnPKIEao-3" style="edgeStyle=orthogonalEdgeStyle;rounded=0;orthogonalLoop=1;jettySize=auto;html=1;exitX=0.5;exitY=1;exitDx=0;exitDy=0;entryX=0.5;entryY=0;entryDx=0;entryDy=0;" edge="1" parent="1" source="CqsUoGGvN82b0qZi6mD4-14" target="CqsUoGGvN82b0qZi6mD4-20">
          <mxGeometry relative="1" as="geometry" />
        </mxCell>
        <mxCell id="CqsUoGGvN82b0qZi6mD4-14" value="Run the restoration from the restoration point in the source vault" style="rounded=1;whiteSpace=wrap;html=1;" vertex="1" parent="1">
          <mxGeometry x="70" y="680" width="120" height="70" as="geometry" />
        </mxCell>
        <mxCell id="LB0DilCTdx80xnPKIEao-6" style="edgeStyle=orthogonalEdgeStyle;rounded=0;orthogonalLoop=1;jettySize=auto;html=1;exitX=0.5;exitY=1;exitDx=0;exitDy=0;entryX=0.5;entryY=0;entryDx=0;entryDy=0;" edge="1" parent="1" source="CqsUoGGvN82b0qZi6mD4-15" target="CqsUoGGvN82b0qZi6mD4-21">
          <mxGeometry relative="1" as="geometry" />
        </mxCell>
        <mxCell id="CqsUoGGvN82b0qZi6mD4-15" value="Internal validation of restoration. e.g. hash of restore point matches or that success status returned" style="rounded=1;whiteSpace=wrap;html=1;" vertex="1" parent="1">
          <mxGeometry x="70" y="850" width="120" height="100" as="geometry" />
        </mxCell>
        <mxCell id="LB0DilCTdx80xnPKIEao-8" style="edgeStyle=orthogonalEdgeStyle;rounded=0;orthogonalLoop=1;jettySize=auto;html=1;exitX=0.5;exitY=1;exitDx=0;exitDy=0;entryX=0.5;entryY=0;entryDx=0;entryDy=0;" edge="1" parent="1" source="CqsUoGGvN82b0qZi6mD4-16" target="CqsUoGGvN82b0qZi6mD4-17">
          <mxGeometry relative="1" as="geometry" />
        </mxCell>
        <mxCell id="CqsUoGGvN82b0qZi6mD4-16" value="Trigger customer provided Lambda for additional validation steps" style="rounded=1;whiteSpace=wrap;html=1;" vertex="1" parent="1">
          <mxGeometry x="340" y="1180" width="120" height="80" as="geometry" />
        </mxCell>
        <mxCell id="CqsUoGGvN82b0qZi6mD4-17" value="Create a summary report of results" style="rounded=1;whiteSpace=wrap;html=1;" vertex="1" parent="1">
          <mxGeometry x="340" y="1310" width="120" height="60" as="geometry" />
        </mxCell>
        <mxCell id="CqsUoGGvN82b0qZi6mD4-39" style="edgeStyle=orthogonalEdgeStyle;rounded=0;orthogonalLoop=1;jettySize=auto;html=1;exitX=1;exitY=0.5;exitDx=0;exitDy=0;entryX=0;entryY=0;entryDx=0;entryDy=0;" edge="1" parent="1" source="CqsUoGGvN82b0qZi6mD4-19" target="CqsUoGGvN82b0qZi6mD4-18">
          <mxGeometry relative="1" as="geometry" />
        </mxCell>
        <mxCell id="LB0DilCTdx80xnPKIEao-2" style="edgeStyle=orthogonalEdgeStyle;rounded=0;orthogonalLoop=1;jettySize=auto;html=1;exitX=0.5;exitY=1;exitDx=0;exitDy=0;entryX=0.5;entryY=0;entryDx=0;entryDy=0;" edge="1" parent="1" source="CqsUoGGvN82b0qZi6mD4-19" target="CqsUoGGvN82b0qZi6mD4-14">
          <mxGeometry relative="1" as="geometry" />
        </mxCell>
        <mxCell id="CqsUoGGvN82b0qZi6mD4-19" value="Check state" style="rounded=1;whiteSpace=wrap;html=1;" vertex="1" parent="1">
          <mxGeometry x="70" y="605" width="120" height="30" as="geometry" />
        </mxCell>
        <mxCell id="CqsUoGGvN82b0qZi6mD4-40" style="edgeStyle=orthogonalEdgeStyle;rounded=0;orthogonalLoop=1;jettySize=auto;html=1;exitX=1;exitY=0.5;exitDx=0;exitDy=0;" edge="1" parent="1" source="CqsUoGGvN82b0qZi6mD4-20">
          <mxGeometry relative="1" as="geometry">
            <mxPoint x="210" y="1080" as="targetPoint" />
          </mxGeometry>
        </mxCell>
        <mxCell id="LB0DilCTdx80xnPKIEao-4" style="edgeStyle=orthogonalEdgeStyle;rounded=0;orthogonalLoop=1;jettySize=auto;html=1;exitX=0.5;exitY=1;exitDx=0;exitDy=0;entryX=0.5;entryY=0;entryDx=0;entryDy=0;" edge="1" parent="1" source="CqsUoGGvN82b0qZi6mD4-20" target="CqsUoGGvN82b0qZi6mD4-15">
          <mxGeometry relative="1" as="geometry" />
        </mxCell>
        <mxCell id="CqsUoGGvN82b0qZi6mD4-20" value="Check state" style="rounded=1;whiteSpace=wrap;html=1;" vertex="1" parent="1">
          <mxGeometry x="70" y="770" width="120" height="30" as="geometry" />
        </mxCell>
        <mxCell id="CqsUoGGvN82b0qZi6mD4-42" style="edgeStyle=orthogonalEdgeStyle;rounded=0;orthogonalLoop=1;jettySize=auto;html=1;exitX=1;exitY=0.5;exitDx=0;exitDy=0;" edge="1" parent="1" source="CqsUoGGvN82b0qZi6mD4-21">
          <mxGeometry relative="1" as="geometry">
            <mxPoint x="210" y="1080" as="targetPoint" />
          </mxGeometry>
        </mxCell>
        <mxCell id="LB0DilCTdx80xnPKIEao-7" style="edgeStyle=orthogonalEdgeStyle;rounded=0;orthogonalLoop=1;jettySize=auto;html=1;exitX=0.5;exitY=1;exitDx=0;exitDy=0;entryX=0;entryY=0.5;entryDx=0;entryDy=0;" edge="1" parent="1" source="CqsUoGGvN82b0qZi6mD4-21" target="CqsUoGGvN82b0qZi6mD4-16">
          <mxGeometry relative="1" as="geometry" />
        </mxCell>
        <mxCell id="CqsUoGGvN82b0qZi6mD4-21" value="Check state" style="rounded=1;whiteSpace=wrap;html=1;" vertex="1" parent="1">
          <mxGeometry x="70" y="980" width="120" height="30" as="geometry" />
        </mxCell>
        <mxCell id="CqsUoGGvN82b0qZi6mD4-22" value="Copy the restoration point from the destination vault to the source vault account&amp;nbsp;" style="rounded=1;whiteSpace=wrap;html=1;" vertex="1" parent="1">
          <mxGeometry x="250" y="500" width="120" height="85" as="geometry" />
        </mxCell>
        <mxCell id="LB0DilCTdx80xnPKIEao-32" style="edgeStyle=orthogonalEdgeStyle;rounded=0;orthogonalLoop=1;jettySize=auto;html=1;exitX=0.5;exitY=1;exitDx=0;exitDy=0;entryX=0.5;entryY=0;entryDx=0;entryDy=0;" edge="1" parent="1" source="CqsUoGGvN82b0qZi6mD4-23" target="LB0DilCTdx80xnPKIEao-10">
          <mxGeometry relative="1" as="geometry" />
        </mxCell>
        <mxCell id="CqsUoGGvN82b0qZi6mD4-23" value="Check state" style="rounded=1;whiteSpace=wrap;html=1;" vertex="1" parent="1">
          <mxGeometry x="250" y="605" width="120" height="30" as="geometry" />
        </mxCell>
        <mxCell id="CqsUoGGvN82b0qZi6mD4-24" value="Copy the restoration point from the destination vault to the source vault account&amp;nbsp;" style="rounded=1;whiteSpace=wrap;html=1;" vertex="1" parent="1">
          <mxGeometry x="440" y="500" width="120" height="85" as="geometry" />
        </mxCell>
        <mxCell id="LB0DilCTdx80xnPKIEao-33" style="edgeStyle=orthogonalEdgeStyle;rounded=0;orthogonalLoop=1;jettySize=auto;html=1;exitX=0.5;exitY=1;exitDx=0;exitDy=0;entryX=0.5;entryY=0;entryDx=0;entryDy=0;" edge="1" parent="1" source="CqsUoGGvN82b0qZi6mD4-25" target="LB0DilCTdx80xnPKIEao-17">
          <mxGeometry relative="1" as="geometry" />
        </mxCell>
        <mxCell id="CqsUoGGvN82b0qZi6mD4-25" value="Check state" style="rounded=1;whiteSpace=wrap;html=1;" vertex="1" parent="1">
          <mxGeometry x="440" y="605" width="120" height="30" as="geometry" />
        </mxCell>
        <mxCell id="CqsUoGGvN82b0qZi6mD4-26" value="Copy the restoration point from the destination vault to the source vault account&amp;nbsp;" style="rounded=1;whiteSpace=wrap;html=1;" vertex="1" parent="1">
          <mxGeometry x="630" y="500" width="120" height="85" as="geometry" />
        </mxCell>
        <mxCell id="LB0DilCTdx80xnPKIEao-34" style="edgeStyle=orthogonalEdgeStyle;rounded=0;orthogonalLoop=1;jettySize=auto;html=1;exitX=0.5;exitY=1;exitDx=0;exitDy=0;entryX=0.5;entryY=0;entryDx=0;entryDy=0;" edge="1" parent="1" source="CqsUoGGvN82b0qZi6mD4-27" target="LB0DilCTdx80xnPKIEao-24">
          <mxGeometry relative="1" as="geometry" />
        </mxCell>
        <mxCell id="CqsUoGGvN82b0qZi6mD4-27" value="Check state" style="rounded=1;whiteSpace=wrap;html=1;" vertex="1" parent="1">
          <mxGeometry x="630" y="605" width="120" height="30" as="geometry" />
        </mxCell>
        <mxCell id="LB0DilCTdx80xnPKIEao-9" style="edgeStyle=orthogonalEdgeStyle;rounded=0;orthogonalLoop=1;jettySize=auto;html=1;exitX=0.5;exitY=1;exitDx=0;exitDy=0;entryX=0.5;entryY=0;entryDx=0;entryDy=0;" edge="1" parent="1" source="LB0DilCTdx80xnPKIEao-10" target="LB0DilCTdx80xnPKIEao-14">
          <mxGeometry relative="1" as="geometry" />
        </mxCell>
        <mxCell id="LB0DilCTdx80xnPKIEao-10" value="Run the restoration from the restoration point in the source vault" style="rounded=1;whiteSpace=wrap;html=1;" vertex="1" parent="1">
          <mxGeometry x="250" y="680" width="120" height="70" as="geometry" />
        </mxCell>
        <mxCell id="LB0DilCTdx80xnPKIEao-11" style="edgeStyle=orthogonalEdgeStyle;rounded=0;orthogonalLoop=1;jettySize=auto;html=1;exitX=0.5;exitY=1;exitDx=0;exitDy=0;entryX=0.5;entryY=0;entryDx=0;entryDy=0;" edge="1" parent="1" source="LB0DilCTdx80xnPKIEao-12" target="LB0DilCTdx80xnPKIEao-15">
          <mxGeometry relative="1" as="geometry" />
        </mxCell>
        <mxCell id="LB0DilCTdx80xnPKIEao-12" value="Internal validation of restoration. e.g. hash of restore point matches or that success status returned" style="rounded=1;whiteSpace=wrap;html=1;" vertex="1" parent="1">
          <mxGeometry x="250" y="850" width="120" height="100" as="geometry" />
        </mxCell>
        <mxCell id="LB0DilCTdx80xnPKIEao-13" style="edgeStyle=orthogonalEdgeStyle;rounded=0;orthogonalLoop=1;jettySize=auto;html=1;exitX=0.5;exitY=1;exitDx=0;exitDy=0;entryX=0.5;entryY=0;entryDx=0;entryDy=0;" edge="1" parent="1" source="LB0DilCTdx80xnPKIEao-14" target="LB0DilCTdx80xnPKIEao-12">
          <mxGeometry relative="1" as="geometry" />
        </mxCell>
        <mxCell id="LB0DilCTdx80xnPKIEao-14" value="Check state" style="rounded=1;whiteSpace=wrap;html=1;" vertex="1" parent="1">
          <mxGeometry x="250" y="770" width="120" height="30" as="geometry" />
        </mxCell>
        <mxCell id="LB0DilCTdx80xnPKIEao-15" value="Check state" style="rounded=1;whiteSpace=wrap;html=1;" vertex="1" parent="1">
          <mxGeometry x="250" y="980" width="120" height="30" as="geometry" />
        </mxCell>
        <mxCell id="LB0DilCTdx80xnPKIEao-16" style="edgeStyle=orthogonalEdgeStyle;rounded=0;orthogonalLoop=1;jettySize=auto;html=1;exitX=0.5;exitY=1;exitDx=0;exitDy=0;entryX=0.5;entryY=0;entryDx=0;entryDy=0;" edge="1" parent="1" source="LB0DilCTdx80xnPKIEao-17" target="LB0DilCTdx80xnPKIEao-21">
          <mxGeometry relative="1" as="geometry" />
        </mxCell>
        <mxCell id="LB0DilCTdx80xnPKIEao-17" value="Run the restoration from the restoration point in the source vault" style="rounded=1;whiteSpace=wrap;html=1;" vertex="1" parent="1">
          <mxGeometry x="440" y="680" width="120" height="70" as="geometry" />
        </mxCell>
        <mxCell id="LB0DilCTdx80xnPKIEao-18" style="edgeStyle=orthogonalEdgeStyle;rounded=0;orthogonalLoop=1;jettySize=auto;html=1;exitX=0.5;exitY=1;exitDx=0;exitDy=0;entryX=0.5;entryY=0;entryDx=0;entryDy=0;" edge="1" parent="1" source="LB0DilCTdx80xnPKIEao-19" target="LB0DilCTdx80xnPKIEao-22">
          <mxGeometry relative="1" as="geometry" />
        </mxCell>
        <mxCell id="LB0DilCTdx80xnPKIEao-19" value="Internal validation of restoration. e.g. hash of restore point matches or that success status returned" style="rounded=1;whiteSpace=wrap;html=1;" vertex="1" parent="1">
          <mxGeometry x="440" y="850" width="120" height="100" as="geometry" />
        </mxCell>
        <mxCell id="LB0DilCTdx80xnPKIEao-20" style="edgeStyle=orthogonalEdgeStyle;rounded=0;orthogonalLoop=1;jettySize=auto;html=1;exitX=0.5;exitY=1;exitDx=0;exitDy=0;entryX=0.5;entryY=0;entryDx=0;entryDy=0;" edge="1" parent="1" source="LB0DilCTdx80xnPKIEao-21" target="LB0DilCTdx80xnPKIEao-19">
          <mxGeometry relative="1" as="geometry" />
        </mxCell>
        <mxCell id="LB0DilCTdx80xnPKIEao-21" value="Check state" style="rounded=1;whiteSpace=wrap;html=1;" vertex="1" parent="1">
          <mxGeometry x="440" y="770" width="120" height="30" as="geometry" />
        </mxCell>
        <mxCell id="LB0DilCTdx80xnPKIEao-22" value="Check state" style="rounded=1;whiteSpace=wrap;html=1;" vertex="1" parent="1">
          <mxGeometry x="440" y="980" width="120" height="30" as="geometry" />
        </mxCell>
        <mxCell id="LB0DilCTdx80xnPKIEao-23" style="edgeStyle=orthogonalEdgeStyle;rounded=0;orthogonalLoop=1;jettySize=auto;html=1;exitX=0.5;exitY=1;exitDx=0;exitDy=0;entryX=0.5;entryY=0;entryDx=0;entryDy=0;" edge="1" parent="1" source="LB0DilCTdx80xnPKIEao-24" target="LB0DilCTdx80xnPKIEao-28">
          <mxGeometry relative="1" as="geometry" />
        </mxCell>
        <mxCell id="LB0DilCTdx80xnPKIEao-24" value="Run the restoration from the restoration point in the source vault" style="rounded=1;whiteSpace=wrap;html=1;" vertex="1" parent="1">
          <mxGeometry x="630" y="680" width="120" height="70" as="geometry" />
        </mxCell>
        <mxCell id="LB0DilCTdx80xnPKIEao-25" style="edgeStyle=orthogonalEdgeStyle;rounded=0;orthogonalLoop=1;jettySize=auto;html=1;exitX=0.5;exitY=1;exitDx=0;exitDy=0;entryX=0.5;entryY=0;entryDx=0;entryDy=0;" edge="1" parent="1" source="LB0DilCTdx80xnPKIEao-26" target="LB0DilCTdx80xnPKIEao-29">
          <mxGeometry relative="1" as="geometry" />
        </mxCell>
        <mxCell id="LB0DilCTdx80xnPKIEao-26" value="Internal validation of restoration. e.g. hash of restore point matches or that success status returned" style="rounded=1;whiteSpace=wrap;html=1;" vertex="1" parent="1">
          <mxGeometry x="630" y="850" width="120" height="100" as="geometry" />
        </mxCell>
        <mxCell id="LB0DilCTdx80xnPKIEao-27" style="edgeStyle=orthogonalEdgeStyle;rounded=0;orthogonalLoop=1;jettySize=auto;html=1;exitX=0.5;exitY=1;exitDx=0;exitDy=0;entryX=0.5;entryY=0;entryDx=0;entryDy=0;" edge="1" parent="1" source="LB0DilCTdx80xnPKIEao-28" target="LB0DilCTdx80xnPKIEao-26">
          <mxGeometry relative="1" as="geometry" />
        </mxCell>
        <mxCell id="LB0DilCTdx80xnPKIEao-28" value="Check state" style="rounded=1;whiteSpace=wrap;html=1;" vertex="1" parent="1">
          <mxGeometry x="630" y="770" width="120" height="30" as="geometry" />
        </mxCell>
        <mxCell id="LB0DilCTdx80xnPKIEao-29" value="Check state" style="rounded=1;whiteSpace=wrap;html=1;" vertex="1" parent="1">
          <mxGeometry x="630" y="980" width="120" height="30" as="geometry" />
        </mxCell>
        <mxCell id="LB0DilCTdx80xnPKIEao-35" style="edgeStyle=orthogonalEdgeStyle;rounded=0;orthogonalLoop=1;jettySize=auto;html=1;exitX=1;exitY=0.5;exitDx=0;exitDy=0;entryX=0;entryY=0;entryDx=0;entryDy=0;" edge="1" parent="1">
          <mxGeometry relative="1" as="geometry">
            <mxPoint x="369.5" y="620" as="sourcePoint" />
            <mxPoint x="389.5" y="1080" as="targetPoint" />
          </mxGeometry>
        </mxCell>
        <mxCell id="LB0DilCTdx80xnPKIEao-36" style="edgeStyle=orthogonalEdgeStyle;rounded=0;orthogonalLoop=1;jettySize=auto;html=1;exitX=1;exitY=0.5;exitDx=0;exitDy=0;" edge="1" parent="1">
          <mxGeometry relative="1" as="geometry">
            <mxPoint x="389.5" y="1080" as="targetPoint" />
            <mxPoint x="369.5" y="785" as="sourcePoint" />
          </mxGeometry>
        </mxCell>
        <mxCell id="LB0DilCTdx80xnPKIEao-37" style="edgeStyle=orthogonalEdgeStyle;rounded=0;orthogonalLoop=1;jettySize=auto;html=1;exitX=1;exitY=0.5;exitDx=0;exitDy=0;" edge="1" parent="1">
          <mxGeometry relative="1" as="geometry">
            <mxPoint x="389.5" y="1080" as="targetPoint" />
            <mxPoint x="369.5" y="995" as="sourcePoint" />
          </mxGeometry>
        </mxCell>
        <mxCell id="LB0DilCTdx80xnPKIEao-38" style="edgeStyle=orthogonalEdgeStyle;rounded=0;orthogonalLoop=1;jettySize=auto;html=1;exitX=1;exitY=0.5;exitDx=0;exitDy=0;entryX=0;entryY=0;entryDx=0;entryDy=0;" edge="1" parent="1">
          <mxGeometry relative="1" as="geometry">
            <mxPoint x="559" y="620" as="sourcePoint" />
            <mxPoint x="579" y="1080" as="targetPoint" />
          </mxGeometry>
        </mxCell>
        <mxCell id="LB0DilCTdx80xnPKIEao-39" style="edgeStyle=orthogonalEdgeStyle;rounded=0;orthogonalLoop=1;jettySize=auto;html=1;exitX=1;exitY=0.5;exitDx=0;exitDy=0;" edge="1" parent="1">
          <mxGeometry relative="1" as="geometry">
            <mxPoint x="579" y="1080" as="targetPoint" />
            <mxPoint x="559" y="785" as="sourcePoint" />
          </mxGeometry>
        </mxCell>
        <mxCell id="LB0DilCTdx80xnPKIEao-40" style="edgeStyle=orthogonalEdgeStyle;rounded=0;orthogonalLoop=1;jettySize=auto;html=1;exitX=1;exitY=0.5;exitDx=0;exitDy=0;" edge="1" parent="1">
          <mxGeometry relative="1" as="geometry">
            <mxPoint x="579" y="1080" as="targetPoint" />
            <mxPoint x="559" y="995" as="sourcePoint" />
          </mxGeometry>
        </mxCell>
        <mxCell id="LB0DilCTdx80xnPKIEao-41" style="edgeStyle=orthogonalEdgeStyle;rounded=0;orthogonalLoop=1;jettySize=auto;html=1;exitX=1;exitY=0.5;exitDx=0;exitDy=0;entryX=0;entryY=0;entryDx=0;entryDy=0;" edge="1" parent="1">
          <mxGeometry relative="1" as="geometry">
            <mxPoint x="750" y="620" as="sourcePoint" />
            <mxPoint x="770" y="1080" as="targetPoint" />
          </mxGeometry>
        </mxCell>
        <mxCell id="LB0DilCTdx80xnPKIEao-42" value="" style="endArrow=none;html=1;rounded=0;" edge="1" parent="1">
          <mxGeometry width="50" height="50" relative="1" as="geometry">
            <mxPoint x="130" y="1050" as="sourcePoint" />
            <mxPoint x="320" y="1010" as="targetPoint" />
            <Array as="points">
              <mxPoint x="320" y="1050" />
            </Array>
          </mxGeometry>
        </mxCell>
        <mxCell id="LB0DilCTdx80xnPKIEao-43" value="" style="endArrow=none;html=1;rounded=0;" edge="1" parent="1">
          <mxGeometry width="50" height="50" relative="1" as="geometry">
            <mxPoint x="318.5" y="1050" as="sourcePoint" />
            <mxPoint x="508.5" y="1010" as="targetPoint" />
            <Array as="points">
              <mxPoint x="508.5" y="1050" />
            </Array>
          </mxGeometry>
        </mxCell>
        <mxCell id="LB0DilCTdx80xnPKIEao-44" value="" style="endArrow=none;html=1;rounded=0;" edge="1" parent="1">
          <mxGeometry width="50" height="50" relative="1" as="geometry">
            <mxPoint x="500" y="1050" as="sourcePoint" />
            <mxPoint x="690" y="1010" as="targetPoint" />
            <Array as="points">
              <mxPoint x="690" y="1050" />
            </Array>
          </mxGeometry>
        </mxCell>
        <mxCell id="LB0DilCTdx80xnPKIEao-47" style="edgeStyle=orthogonalEdgeStyle;rounded=0;orthogonalLoop=1;jettySize=auto;html=1;exitX=0.5;exitY=0;exitDx=0;exitDy=0;entryX=0.332;entryY=1.125;entryDx=0;entryDy=0;entryPerimeter=0;" edge="1" parent="1" source="CqsUoGGvN82b0qZi6mD4-16" target="CqsUoGGvN82b0qZi6mD4-18">
          <mxGeometry relative="1" as="geometry" />
        </mxCell>
      </root>
    </mxGraphModel>
  </diagram>
</mxfile>
